<?xml version='1.0' encoding='utf-8'?>
<svg xmlns="http://www.w3.org/2000/svg" width="1152.3mm" height="1591.2mm" version="1.1" viewBox="0 0 1152.3 1591.2"><g transform="translate(-305.76 -3724.5)"><g transform="translate(0 238.12)"><path d="m305.76 3486.3h1152.3v1591.2h-1152.3z" fill="#f7e9e4" stop-color="#000000" stroke-linecap="square" stroke-width="8.7001" style="paint-order:markers stroke fill"/><path d="m1021.8 4058.3c-2.5864-1.1107-3.3468-4.2887-2.7131-11.383 0.7851-8.6535 6.2748-17.942 16.426-28.034 5.0562-5.0267 13.937-20.262 18.795-32.208 1.0353-2.4662 3.0326-7.4688 3.0326-7.4688 0.8188-9.1262 2.3732-27.409 2.3732-27.409 2.2994-26.746 2.3836-27.462 4.7835-32.642 3.4236-7.3859 6.0068-11.286 15.513-24.124 4.4986-6.0746 9.5652-13.85 11.437-17.488 5.9129-11.493 6.5253-14.43 8.1545-40.411 1.4532-23.168 1.4333-23.323 3.8389-29.111 2.6217-6.3106 7.1774-13.202 16.41-25.534 13.162-17.578 15.416-27.93 14.578-66.046-0.6177-28.098 0.4359-38.473 5.3464-50.398 3.0656-7.4449 5.352-10.954 13.946-22.647 10.921-14.861 12.086-18.481 13.576-38.765 0.4637-6.3103 1.3124-13.571 1.8849-15.999 1.4377-6.0991 5.421-13.187 10.151-18.219 2.4288-2.5838 10.947-8.7533 19.478-14.589 8.5854-5.8733 17.534-11.645 21.79-13.638 5.6734-2.6571 6.7442-2.8741 13.605-2.7016 7.3526 0.1959 7.4968 0.2317 12.116 3.6133 6.0147 4.4043 10.505 10.09 14.539 18.429 4.4808 9.2635 6.3932 16.909 6.567 26.521 0.1268 7.018-0.044 8.1533-2.1577 14.414-1.8408 5.4498-3.8412 9.0974-10.235 18.516-12.069 17.778-12.822 20.827-10.574 45.455 2.0298 22.235 1.679 29.293-1.9428 39.621-2.6871 7.6622-6.704 13.074-19.568 25.347-20.137 19.211-23.511 24.948-30.558 54.782-5.8814 24.901-9.5176 31.294-26.814 45.563-8.6165 7.1082-11.846 10.462-16.41 17.325-4.692 7.0572-7.448 14.683-10.824 29.886-4.1738 18.796-8.1274 28.056-19.041 43.75-9.2789 13.342-11.852 18.993-15.829 35.526-3.6232 15.064-6.8031 22.598-13.93 32.81-3.23 4.6273-9.6028 14.056-13.32 19.703-3.9167 5.9503-8.7897 12.671-10.885 15.036-8.2717 9.3331-27.935 28.644-31.664 31.088-3.827 2.5073-8.158 3.0305-11.878 1.4329z" fill="#da9bba"/><path d="m965 4061c-2.7785-1.1072-3.6728-3.6213-3.1967-9.0317 0.56982-6.3909 3.5553-15.127 7.2258-21.12 3.7196-6.0744 7.7062-17.978 10.144-30.257 2.1713-10.937 2.0415-21.452-0.48709-34.449-1.1112-5.7103-1.5186-11.772-1.27-18.982 0.33912-9.8182 0.58269-11.09 3.3683-17.471 1.6474-3.7736 5.5852-10.962 8.7127-15.924 10.297-16.336 10.729-21.218 3.1842-42.109-5.7392-15.891-6.4351-19.248-5.2394-27.935 1.2096-8.7891 5.2586-15.851 16.651-29.73 10.906-13.286 12.939-17.385 13.533-26.229 0.4117-6.1376 0.1081-8.045-2.4623-14.954-8.2639-22.214-8.4359-22.298-8.4023-30.364 0.042-10.138 1.8392-14.603 11.848-31.256 14.502-24.127 14.804-27.886 3.9396-58.251-3.3975-9.4963-3.4823-9.9816-3.0833-19.915 0.3783-9.4057 0.6099-10.565 3.1471-15.211 1.4895-2.7291 5.7922-8.5792 9.4144-12.856 7.8287-9.2412 10.029-12.744 14.905-23.467 7.0466-15.498 13.494-23.477 23.508-29.09 14.526-8.141 31.657-6.4755 47.046 4.454 7.6887 5.4603 16.715 16.745 19.487 24.086 6.1141 16.187 3.134 30.521-12.089 51.008-4.027 5.4194-8.7668 11.957-10.046 13.956-5.9487 9.2945-7.1262 17.572-4.6747 33.47 3.6288 23.531 2.0235 31.111-12.288 51.53-3.7302 5.3222-7.3842 10.677-7.9834 11.782-2.8494 5.2582-5.0527 12.959-6.9362 24.179-1.1321 6.7425-3.1906 15.377-4.6039 19.329-5.9999 16.779-6.5927 18.622-7.0219 24.564-0.2681 3.7117 0.2404 10.554 1.2996 17.641 2.8788 19.264 1.2192 25.743-11.381 42.024-10.432 13.48-11.046 15.026-13.575 36.741-2.3792 20.43-2.524 20.934-12.039 35.718-3.8518 5.9852-7.1796 12.657-10.717 21.504-2.8346 7.0891-6.8709 16.376-9.0294 20.784-9.3329 19.059-11.348 23.894-14.956 36.454-7.0695 24.606-12.949 33.222-26.266 37.978-7.0521 2.5183-6.9148 2.4958-9.6666 1.3985h2.1e-4z" fill="#da9bba"/><path d="m725.26 4068.7c-8.5447-2.8416-16.274-13.847-21.276-30.196-4.7426-15.5-7.8428-19.45-20.803-26.423-15.884-8.5473-19.452-13.546-25.281-35.44-7.1567-26.881-14.809-35.147-45.129-48.208-21.484-9.2539-34.866-18.475-40.627-28.204-2.2184-3.7466-6.3514-13.518-9.1556-21.63-2.8141-8.1398-6.361-17.045-7.886-19.83-8.325-15.202-28.499-25.347-72.574-37.696-25.649-7.1856-36.371-11.467-44.295-17.204-10.02-7.2526-13.617-13.136-18.784-30.643-4.8123-16.305-6.6849-18.252-23.017-26.257-29.527-14.473-33.541-27.046-26.45-67.065 4.16-23.477 4.2041-36.771 0.36302-50.202-4.0064-14.009-5.2306-23.342-4.5483-33.141 1.5439-22.149 11.4-40.37 26.693-47.401 12.74-5.8579 27.958-5.9045 45.945-0.1529 21.03 6.7296 43.26 13.694 47.802 15.357 8.7854 3.2178 19.375 9.9307 29.044 18.403 5.2184 4.573 15.983 12.172 24.669 17.39 24.361 14.632 30.494 20.81 31.417 32.468 0.61952 7.8278-0.56972 11.491-8.5398 27.618-8.4381 17.075-5.9291 22.736 18.036 40.839 22.472 16.976 29.413 24.241 34.386 36.037 3.3887 8.0392 2.2997 22.129-2.5764 34.336-5.2754 13.207-5.248 21.77-0.0324 28.326 4.6246 5.8124 11.052 9.8259 32.548 20.679 26.441 13.35 37.898 22.779 44.369 35.959 3.9272 7.9992 5.1928 17.804 4.813 37.156-0.23437 11.946 0.12161 18.263 1.2364 21.694 2.6371 8.1231 9.8765 17.237 23.743 30.563 18.673 17.944 24.576 28 25.791 41.984 0.30566 3.5169 1.6327 11.334 2.9142 17.248 5.0209 23.168 6.0307 42.836 2.9752 51.242-3.6944 10.164-15.409 15.837-25.77 12.391v3e-4z" fill="#da9bba"/><path d="m1068.6 4074.2c-3.7887-2.0334-4.9971-4.1492-4.6527-8.2017 0.461-5.4247 5.0622-10.521 11.773-13.124 1.5493-0.6009 9.2328-7.4152 17.49-15.614 19.918-19.775 21.832-23.759 25.498-48.543 4.1339-27.95 8.7133-34.131 34.238-50.214 7.9186-4.9898 12.094-8.3597 17.313-13.904 10.35-10.996 14.122-20.185 18.033-43.658 4.8514-29.124 9.7829-37.689 28.562-51.171 16.23-11.652 22.063-17.849 27.375-28.224 5.5299-10.8 7.2841-17.687 11.258-46.856 1.3432-9.8606 3.0696-21.179 3.7988-24.719 1.9581-9.5075 6.1754-21.028 11.693-32.031 9.3024-18.549 10.206-23.116 9.6794-49.036-0.2401-11.832-0.139-19.759 0.3211-22.567 1.8705-11.433 7.106-21.06 16.07-28.987 2.9573-2.6144 10.498-8.1149 17.293-12.492 6.2702-4.0397 16.667-11.294 21.265-14.888 14.146-11.056 23.788-14.649 35.641-13.713 10.191 0.8047 17.433 5.8267 22.7 16.221 5.1302 10.125 9.2596 37.279 8.3179 54.999-0.6891 12.899-2.0347 19.841-7.4365 42.05-5.1211 21.055-5.829 32.05-3.8676 52.156 3.4523 35.396 0.087 45.437-17.777 62.199-9.3512 8.7757-12.461 13.156-18.388 25.316-4.5688 9.3737-9.7067 16.178-14.781 19.594-2.0067 1.3508-8.7275 4.3686-14.746 6.6481-18.406 6.9721-21.569 10.511-29.872 31.59-3.3032 8.3863-6.4784 15.046-8.3778 17.64-3.4035 4.649-9.5231 8.8322-18.55 12.665-8.6183 3.6591-13.968 7.2438-18.168 12.185-3.8282 4.5028-4.1803 5.6191-13.898 28.912-1.2568 3.012-3.8493 7.3099-5.7893 9.5915-5.2251 6.1435-10.107 8.4017-24.391 11.222-26.068 5.1468-29.724 8.8366-33.001 36.078-1.67 13.882-4.6254 21.674-10.226 26.819-1.7232 1.5831-7.5555 5.0472-13.07 7.7384-5.4812 2.6755-11.305 5.8696-12.827 7.0574-1.5198 1.1859-5.5112 5.993-8.8591 10.651-8.032 11.175-12.9 15.777-20.485 19.481-8.4336 4.1177-22.643 8.2194-29.898 8.6122-4.6972 0.2542-6.5759-0.043-9.2582-1.4847z" fill="#da9bba"/><path d="m861.04 4075.9c-1.855-0.6921-6.7916-4.3481-10.966-8.0945-4.3339-3.89-9.9474-8.7221-13.161-11.348-3.0047-2.4561-9.0159-9.1439-13.241-14.699-4.3204-5.6815-11.313-13.587-15.887-17.962-11.056-10.575-18.246-20.115-28.393-37.453-5.4524-9.3173-6.7448-14.431-7.378-29.551-0.83735-20-2.0838-23.733-11.929-34.734-10.168-11.362-12.938-19.432-13.706-40.718-0.87773-24.334-3.1108-29.2-20.274-42.23-25.765-19.56-32.383-29.841-30.849-50.859 0.0293-0.3961 1.4918-20.645 1.5206-21.041 1.3743-19.152-1.7154-23.413-30.874-39.745-27.795-15.568-35.698-23.886-34.134-36.827 0.82026-6.7905 3.014-11.628 11.389-24.741 11.417-17.876 12.869-24.573 6.0714-29.658-1.7681-1.3225-8.3404-4.7656-14.633-7.6624-14.483-6.6681-20.769-11.012-25.007-17.313-3.0777-4.5751-3.365-5.9058-3.2491-15.733 0.10479-8.9021 0.72114-12.105 3.586-18.734 8.4561-19.566 18.054-26.654 40.078-29.848 13.057-1.8926 57.066-0.027 75.72 3.2044 10.295 1.7751 26.089 7.2663 32.356 11.214 2.8484 1.7946 6.6342 5.1156 8.4342 7.3928 2.852 3.6085 3.2352 5.0486 3.0417 11.286-0.18695 6.0226-1.0623 8.8395-5.5577 17.874-7.9352 15.948-7.4462 18.249 6.0793 35.32 14.412 18.189 17.202 32.585 10.051 48.969-1.4968 3.4288-6.8712 12.648-11.929 20.47-20.095 31.08-18.742 40.839 6.0494 63.233 14.703 13.28 20.356 19.673 25.075 27.621 3.8405 6.4683 3.9975 7.1932 3.712 16.047-0.25314 7.8478-0.93885 10.886-4.4361 19.819-7.4097 18.928-5.3876 24.598 12.868 42.228 18.348 17.719 20.744 25.537 15.944 46.346-1.4612 6.3343-2.2909 12.799-2.143 16.646 0.22313 5.7966 0.97894 7.469 8.1604 20.174 4.318 7.6385 7.7548 14.379 7.7218 14.972-0.0335 0.5925 1.4589 2.9841 3.303 5.3133 4.0234 5.083 6.2452 11.506 8.8371 25.79 2.6127 14.396 4.5155 18.905 15.69 40.75 10.165 19.871 11.034 23.935 7.6771 29.606-1.2991 2.1941-3.1768 3.8352-5.346 4.6669-4.1875 1.6054-5.9962 1.6041-10.272 0l-1.2e-4 5e-4z" fill="#da9bba"/><path d="m914.19 4106.1c-2.1361-1.0154-3.779-2.8352-4.93-5.4654-1.5207-3.4746-1.6211-5.9263-0.86197-20.472 0.31289-5.486 0.85755-16.51 0.85755-16.51-1.0276-3.4494-3.1737-10.415-3.1737-10.415-1.7772-5.8019-6.213-16.492-10.032-24.08-12.207-24.252-12.726-30.226-2.7228-53.373 6.7794-15.688 8.9212-24.466 7.8897-32.5-1.1063-8.616-3.3582-13.654-12.674-27.012-14.265-20.456-15.716-26.005-9.9247-45.761 6.6044-22.531 5.6636-26.655-12.288-42.561-15.116-13.394-18.527-18.487-18.579-29.635-0.0313-6.9269 0.40114-8.499 5.5583-20.166 6.6963-15.142 7.4689-21.053 3.605-28.138-3.324-6.095-8.6565-10.729-22.3-18.889-15.423-9.2255-23.569-15.592-27.762-22.195-8.1974-12.91-4.8814-24.544 12.645-44.411 10.24-11.608 13.442-16.685 14.298-22.464 0.90895-6.1424-0.0529-8.8924-8.5841-22.968-9.2449-15.252-11.3-21.806-10.134-33.514 1.9377-19.461 8.1866-32.082 19.897-40.532 21.433-15.466 55.675-16.949 87.427-3.9989 15.068 6.1457 23.746 12.99 28.677 22.137 6.5633 12.174 5.2257 22.713-6.0092 43.735-11.214 20.982-11.664 25.904-4.2938 47.662 6.3969 18.885 7.0577 26.94 3.8555 42.441-5.8543 28.342-5.7992 27.342-3.3046 49.633 1.5491 13.842 1.2507 19.62-1.77 35.348-3.4443 17.933-3.0658 20.83 4.0876 40.101 6.2676 16.885 6.3784 17.952 2.4559 66.594-3.1798 39.439-3.7558 43.599-6.2816 52.042-1.5275 5.1069-3.3175 12.868-3.9775 17.244-1.1044 7.3224-0.95313 9.1883 1.5513 22.956 3.6663 20.151 3.7978 42.801 0.56572 73.983-2.5978 25.06-4.7594 34.293-10.332 44.12-3.0553 5.3875-4.2129 6.6617-6.8591 7.5363-1.7517 0.5793-3.2311 1.0538-3.2837 1.0538-0.0541-2e-4 -1.5317-0.6867-3.2929-1.5245z" fill="#da9bba"/><path d="m699.14 4115.4c-6.354-3.149-9.6334-7.2322-13.427-16.666-5.5711-13.853-7.648-15.595-24.052-20.08-16.555-4.5258-22.885-8.1478-34.183-19.549-9.5826-9.6702-15.999-13.919-27.057-18.008-22.093-8.1704-30.678-14.372-41.437-30.116-9.9458-14.554-13.759-17.438-30.52-23.324-22.229-7.8069-31.473-12.596-48.964-25.462-9.5436-7.0207-18.031-12.483-21.18-13.608-2.8856-1.0307-12.099-2.9139-20.375-4.1833-8.3385-1.2788-17.407-2.9234-20.375-3.6785-12.373-3.1461-28.705-11.218-35.741-17.606-4.6142-4.1889-9.016-11.699-10.864-18.464-1.2732-4.6625-1.6698-11.061-1.5347-24.305 0.0929-5.9685 0.17971-17.977 0.17971-17.977-1.9563-4.1042-5.9073-12.389-5.9073-12.389-8.1114-17.184-9.2508-22.318-8.6344-34.153 0.61033-11.714 2.4628-16.741 8.2975-22.38 9.003-8.7025 19.034-7.5645 35.852 3.7172 9.2392 6.1971 15.564 12.227 25.026 23.816 11.981 14.674 16.137 17.459 32.573 22.074 21.824 6.1286 30.339 12.703 36.971 29.085 5.1269 12.663 7.0892 14.442 24.523 21.894 22.56 9.6442 42.664 21.992 49.91 30.74 1.8368 2.2169 5.8623 9.4587 8.9526 16.132 3.0808 6.6518 7.0239 13.859 8.7486 15.963 4.9438 6.0314 15.508 12.761 32.876 21.136 8.8111 4.2495 18.224 9.4509 21.137 11.647 9.6346 7.2622 13.968 16.603 16.11 34.703 0.63085 5.3313 1.4398 11.516 1.7819 13.571 0.98684 5.9223 5.8262 9.3154 20.153 14.402 20.133 7.1485 30.246 14.758 38.913 29.037 2.3233 3.8279 5.6613 8.7153 7.3512 10.749 2.2607 2.7209 3.2109 5.1416 3.4956 8.872 0.54703 7.1712-1.5713 10.14-9.8562 13.797-8.245 3.6399-12.377 3.7723-18.744 0.6173h1.1e-4z" fill="#da9bba"/><path d="m1097.3 4123.5c-8.8242-2.7058-13.157-7.3299-12.608-13.599 0.523-5.9776 5.4003-9.0788 15.86-10.135 17.542-1.7706 31.156-10.524 38.104-24.35 2.2866-4.5506 4.8523-9.691 7.035-14.094 7.2677-14.66 19.348-22.918 44.569-31.061 17.237-5.5655 24.774-13.056 30.189-29.781 5.0169-15.494 8.4038-21.415 15.95-27.731 4.7984-4.0154 12.34-8.6013 16.647-10.112 1.3934-0.489 6.6642-1.4719 11.692-2.1815 5.4862-0.7738 10.084-1.9262 11.497-2.8799 3.0086-2.0315 5.2532-6.8013 6.8682-14.636 2.7372-13.28 5.3851-20.507 9.5928-26.003 6.7048-8.7592 12.834-11.864 26.26-13.103 8.8973-0.8213 11.846-1.9375 13.608-5.2101 0.6899-1.2816 2.793-7.7365 4.6728-14.354 3.9676-13.968 6.3909-18.718 14.516-27.888 7.6907-8.6788 12.331-11.184 20.197-10.948 6.779 0.2107 10.636 2.1645 15.842 8.1016 6.5128 7.4266 8.9368 16.076 12.086 44.159 1.0821 9.6492 2.6558 18.696 4.4695 25.652 4.0534 15.546 4.8282 20.937 4.3803 30.308-0.491 10.269-2.3609 15.514-9.6064 27.94-6.5642 11.257-10.793 16.489-15.646 19.178-7.5485 4.1835-15.63 3.1909-28.01-3.5327-9.0223-4.9002-11.177-5.4494-14.218-3.4249-2.4406 1.6254-8.3781 10.416-19.57 28.73-10.288 16.835-15.484 20.573-27.246 19.9-5.8687-0.3349-8.4384-1.003-15.73-4.0824-4.7918-2.0239-10.073-3.7432-11.751-3.823-7.5336-0.3589-15.447 7.6257-27.88 27.567-7.8648 12.614-12.013 17.076-17.424 19.044-4.9651 1.8057-12.491 1.1467-19.85-1.7317-7.2905-2.8509-11.258-3.2728-14.44-1.5544-3.0407 1.6427-7.0107 6.5001-9.8045 11.995-6.0311 11.861-12.988 19.606-21.37 23.794-4.2674 2.1325-5.4766 2.2944-15.446 2.1971-3.5846 0-10.888-0.095-10.888-0.095-2.7733 1.4407-8.4352 4.2612-8.4352 4.2612-7.2065 3.6324-9.3583 4.3052-14.266 4.5004-3.229 0.1275-7.5793-0.3173-9.8474-1.0135h-1e-4z" fill="#da9bba"/><path d="m671.68 4173.3c-3.0721-1.0585-8.3866-4.6342-14.543-9.7325-9.3113-7.711-10.094-8.0959-16.432-8.907-14.583-1.8657-23.125-6.9085-36.369-21.23-8.1148-8.7758-16.288-15.01-21.497-16.494-1.7456-0.4973-8.8318-1.6637-15.814-2.5996-21.203-2.8423-32.232-7.4416-56.157-23.364-6.8743-4.5744-14.212-8.9419-16.267-9.699-6.4559-2.377-14.403-1.5396-27.073 2.8253-17.229 5.9358-24.121 7.3124-34.788 7.053-21.757-0.5291-38.249-12.282-45.383-32.369-3.5067-9.874-7.2629-16.537-15.208-27.226-10.141-13.644-11.951-18.506-11.917-30.677 0.0616-22.952 9.9274-39.534 24.638-41.203 10.672-1.2108 20.282 4.0558 36.045 19.482 11.823 11.57 19.1 16.542 26.939 18.572 3.5098 0.909 13.903 2.3839 23.185 3.2799 29.106 2.809 42.574 6.711 58.454 17.143 14.76 9.6958 26.047 22.018 36.284 39.755 3.4119 5.9118 7.5595 12.088 9.2064 13.679 4.7856 4.623 12.059 7.3099 27.937 10.399 27.87 5.4214 48.546 14.671 64.187 28.615 18.832 16.789 34.3 34.388 36.691 40.874 1.533 4.1586 0.26107 11.23-2.7132 15.155-5.2328 6.9046-19.349 10.134-29.407 6.6688z" fill="#da9bba"/><path d="m1102.6 4195.1c-6.2803-3.4662-10.148-12.418-8.3597-19.406 1.1184-4.3716 4.7638-10.61 7.8728-13.499 1.4996-1.3928 3.8205-4.5924 5.1655-7.1181 3.2493-6.1025 9.8594-12.555 15.572-15.238 4.4774-2.1025 5.208-2.1935 21.229-1.7354 18.482 0.5279 21.843 0 31.884-5.3344 4.406-2.3419 8.7208-6.0204 18.98-16.459 9.1048-9.2632 14.286-13.984 17.024-15.325 5.3942-2.6417 12.189-2.755 23.278-0.365 16.833 3.6271 21.9 1.3756 32.775-15.072 5.9277-8.9649 10.751-14.121 15.486-16.462 3.01-1.4873 4.5342-1.6355 10.58-1.0307 18.084 1.8093 21.674 1.6876 26.305-0.8102 2.9666-1.6005 5.7925-4.2172 9.0256-8.3666 12.904-16.56 27.036-24.89 39.193-22.84 12.764 2.1523 23.244 14.415 28.83 34.159 1.8113 6.4023 4.4122 27.377 4.4214 35.668 0.012 13.891-2.2346 19.324-9.6484 23.492-5.3976 3.0341-16.096 3.2381-27.998 0.4901-4.588-1.0596-11.822-2.1007-16.002-2.302-12.608-0.6051-16.438 2.1556-28.865 20.242-8.3877 12.208-14.202 18.589-19.455 21.504-3.5779 1.9859-5.1296 2.3015-10.007 2.0395-4.8143-0.258-7.6118-1.1228-16.831-5.2084-9.8902-4.383-11.772-4.9359-17.988-5.263-9.6775-0.508-12.503 1.1966-27.604 15.779-3.4761 3.3561-8.5953 7.3643-11.406 8.9338-4.7882 2.6737-5.5415 2.8186-12.607 2.4987-6.7767-0.3138-8.4827-0.7642-17.086-4.5331-13.776-6.0349-12.743-6.153-26.477 4.183-2.1978 1.6543-5.1882 3.441-6.6468 3.9725-3.7233 1.3568-10.701 1.0371-16.776-0.7641-6.2046-1.84-8.3174-1.5221-16.58 2.4542-7.7178 3.7137-12.756 4.214-17.285 1.7146z" fill="#da9bba"/><path d="m650.89 4215.1c-3.2486-1.0422-8.6414-3.2505-11.911-4.8789-3.319-1.6517-10.612-4.6792-16.42-6.8031-5.6372-2.0615-14.617-5.5741-19.426-7.6038-11.397-4.8109-15.976-4.7884-33.197 0-17.07 4.7345-22.096 5.6853-30.646 5.9302-9.9888 0.2853-20.016-1.9761-32.944-7.4068-5.8489-2.4572-12.389-4.9622-14.533-5.5746-6.6866-1.9107-14.389-0.5065-26.16 4.734-12.472 5.5528-19.886 7.9327-35.758 11.41-9.9457 2.1787-13.801 2.5765-23.265 2.4192-9.5376-0.1579-12.403-0.5863-17.741-2.6202-13.294-5.0652-25.102-16.401-28.525-27.462-1.4293-4.6395-2.0419-12.22-2.2495-27.888-0.27735-20.599-0.16379-21.732 2.536-26.629 3.5818-6.4928 10.812-12.091 17.365-13.458 10.128-2.1128 16.856 0.3599 32.958 12.04 11.368 8.2455 14.812 9.2185 30.14 8.4556 27.251-1.356 29.829-1.2472 39.434 2.1276 5.1955 1.8254 13.763 6.1787 20.914 10.638 21.047 13.124 29.37 15.127 64.947 15.438 37.002 0.323 49.938 1.9614 67.188 8.5794 10.415 3.9955 29.049 13.57 38.263 19.648 13.859 9.142 15.992 14.634 9.0755 21.992-5.1877 5.5188-9.4618 7.5486-17.444 8.2483-5.2614 0.461-7.9113 0.183-12.601-1.3226z" fill="#da9bba"/><path d="m1097.1 4279.2c-9.2378-2.9531-14.983-8.0888-18.462-16.592-2.4159-5.9065-2.5263-9.3692-0.4259-13.052 3.3373-5.8523 8.5068-8.5002 18.761-9.6185 6.7957-0.7407 22.218-5.7066 30.265-9.7306 4.0314-2.0156 7.6593-5.8478 13.172-13.943 7.3125-10.74 11.364-13.18 21.222-12.702 5.7453 0.2779 8.5394 1.0148 17.112 4.5457 12.375 5.0965 18.931 6.2166 25.137 4.235 3.8054-1.2149 5.7809-2.8425 14.98-12.558 12.091-12.771 15.38-14.837 25.528-15.824 8.0438-0.7825 16.394 0.7437 27.698 5.0541 10.634 4.0539 18.324 5.1458 23.074 3.2836 3.9533-1.5494 6.3479-4.2402 11.849-13.451 5.9984-10.043 13.64-17.908 21.837-22.442 9.8339-5.4398 16.025-7.2062 24.096-6.8453 14.732 0.6608 27.269 10.465 34.119 26.847 6.5264 15.607 7.1113 27.111 1.7152 35.258-2.3858 3.6022-5.1193 5.129-11.585 6.4513-2.8247 0.5778-5.7887 1.7006-6.5855 2.497-0.7964 0.7955-2.6038 4.7105-4.0185 8.6956-8.9398 25.188-23.846 30.39-53.498 18.453-6.8356-2.7523-10.335-3.6602-15.533-4.0186-6.3112-0.4354-7.06-0.2796-12.658 2.6207-3.254 1.6851-10.151 6.4168-15.28 10.472-15.447 12.214-24.233 15.47-39.529 14.814-11.36-0.4871-15.404-1.7938-30.778-9.8905-14.72-7.7515-19.453-9.3336-28.734-9.6563-15.159-0.5261-22.984 2.5646-37.089 14.554-10.003 8.5029-14.05 11.034-20.552 12.895-5.6048 1.6043-10.031 1.5053-15.837-0.3492h1e-4z" fill="#da9bba"/><path d="m390.06 4326.5c-9.5466-3.1004-16.569-8.6211-23.201-18.259-8.5639-12.444-10.013-18.949-9.2811-42.264 0.66575-21.196 1.8906-25.607 8.8641-32.221 2.6502-2.5134 6.1693-4.5177 10.007-5.7057 8.6208-2.6681 17.223-1.4552 38.603 5.4375 23.805 7.6749 28.499 8.6517 40.838 8.3966 3.4917-0.05 10.322-0.229 10.322-0.229 5.5413-2.1978 16.42-6.6626 16.42-6.6626 5.5012-2.2056 16.304-6.6845 16.304-6.6845 3.83-0.064 11.329-0.2655 11.329-0.2655 9.343-0.2235 13.586 0.1883 24.607 2.4132 21.642 4.3667 24.883 4.0516 59.954-7.6224 10.286-3.424 12.266-3.795 22.413-4.1514 13.596-0.4784 19.838 0.9874 32.628 7.7128 15.511 8.1562 27.869 20.383 27.736 27.03-0.0107 1.0155 0.60653 2.8394 1.391 4.0512 2.3945 3.6994 1.5863 10.179-1.6607 13.417-5.7886 5.7716-12.93 6.1596-31.121 1.8034-7.9882-1.9127-12.655-2.4818-18.821-2.3061-7.9215 0.2214-8.5916 0.4235-20.843 6.0023-4.1846 1.9432-12.7 5.7648-12.7 5.7648-3.7212 0.1057-11.322 0.2441-11.322 0.2441-6.2698 0.132-15.905 0.2184-21.538 0.1882-12.176-0.062-13.997 0.6159-30.577 10.808-16.578 10.192-19.301 10.887-45.186 11.242-29.869 0.4114-35.07 1.6867-54.035 13.516-16.929 10.559-27.636 12.717-41.13 8.3341z" fill="#da9bba"/><path d="m1370.3 4385c-1.996-0.7829-7.7128-4.1924-12.729-7.6022-16.349-11.115-28.34-16.716-36.965-17.094-3.8738-0.1753-9.6368 1.5908-17.931 5.4622-8.8497 4.1309-14.463 5.3674-19.804 4.3781-7.0256-1.3015-17.17-6.0364-32.54-15.225-15.433-9.2264-19.86-10.889-25.102-9.3797-1.7213 0.4954-7.3357 3.7553-12.503 7.2522-11.3 7.6461-16.37 9.0454-31.165 8.6753-8.7853-0.2213-10.33-0.5189-17.406-3.4091-4.2522-1.7365-14.154-7.1392-21.934-11.959-4.7026-2.9005-14.186-8.7691-14.186-8.7691-2.9185-0.056-8.8449-0.2444-8.8449-0.2444-10.326-0.2776-12.525 0.4982-25.859 9.0182-4.5599 2.9137-10.548 6.3153-13.293 7.5534-9.5048 4.2862-20.554 3.2754-30.534-2.8034-4.8005-2.924-10.346-9.6165-10.15-12.273 0.078-1.0585-0.5627-2.9773-1.4249-4.2626-1.8841-2.8093-1.784-5.56 0.363-10.062 2.2993-4.8214 5.7894-7.9511 10.192-9.1521 3.1679-0.8641 5.0281-0.7675 10.784 0.5839 3.8203 0.8965 8.0146 1.4084 9.3234 1.133 3.0248-0.6351 6.9134-4.5946 11.99-12.215 9.3022-13.964 15.306-15.644 32.69-8.9813 14.455 5.5404 20.104 4.8244 32.964-4.3091 6.7494-4.7939 14.024-7.8378 18.396-7.6983 4.5224 0.1352 11.279 2.5275 16.518 5.8196 2.5737 1.6166 7.6851 4.8463 12.092 7.6413 9.7713 6.1981 16.359 7.936 23.404 6.1787 5.6286-1.4034 12.796-4.9305 21.316-10.511 9.1102-5.9675 17.451-9.7164 26.543-11.924 12.166-2.9536 16.16-1.8471 35.792 9.6133 5.9534 3.4752 12.502 6.8591 14.567 7.5364 8.2298 2.6983 14.87-0.4443 26.847-12.867 13.6-14.106 21.397-17.429 33.496-14.181 16.04 4.3051 24.518 14.001 26.688 30.734 1.6099 12.415-1.8022 55.008-5.5202 68.181-1.5732 5.5747-6.3987 11.901-10.972 14.365-4.1944 2.2592-10.523 2.5956-15.102 0.7984z" fill="#da9bba"/><path d="m414.58 4451.8c-16.61-2.4991-31.952-10.286-38.926-19.873-3.4748-4.7761-4.188-6.7737-4.6177-13.06-0.62521-9.1532 1.1922-14.935 11.237-35.74 10.619-21.993 17.82-32.461 26.275-38.242 9.4259-6.4445 14.403-7.5406 38.85-9.0208 21.742-1.3161 22.886-1.4707 47.023-7.3845 14.333-3.5114 18.587-4.1989 30.974-4.9231 16.649-0.9734 25.888-0.1178 49.197 4.7328 28.256 5.8813 33.579 5.1676 52.589-7.571 23.631-15.834 38.724-19.674 58.61-14.754 3.6624 0.9062 10.056 1.9427 14.15 2.2955 12.899 1.1118 19.308 5.4687 19.865 13.362 0.32865 4.6609-1.7282 8.2174-7.2004 12.425-6.6527 5.1156-14.848 7.7434-46.058 14.347-15.866 3.3565-20.884 5.479-35.771 15.084-14.078 9.0829-21.695 12.62-33.333 15.531-9.1696 2.2932-14.176 4.2795-31.477 12.242-14.889 6.8529-22.247 8.7891-39.074 10.281-16.7 1.4804-21.544 2.4246-25.937 5.1907-1.7232 1.0845-8.0104 7.6089-13.962 14.467-5.9697 6.8789-13.8 14.742-17.461 17.544-14.813 11.34-34.703 16.111-54.953 13.065z" fill="#da9bba"/><path d="m902.12 4521.2c-9.0549-3.2704-16.288-10.633-32.94-32.99-12.777-17.154-34.041-39.5-54.796-57.112-20.804-17.653-30.818-26.925-41.564-39.227-16.358-18.726-24.904-33.821-32.953-58.612-6.012-18.517-8.6555-24.915-20.575-47.738-14.892-28.514-15.881-31.554-14.645-57.596 0.78865-16.641 1.333-20.557 5.6462-40.099 9.1043-41.249 13.798-55.18 25.007-73.523 12.697-20.779 30.189-35.02 50.8-41.688 7.5504-2.4425 22.441-3.2302 29.69-1.5986 20.332 4.5767 40.017 19.091 73.421 57.994 17.545 20.433 25.392 29.126 31.011 32.823 3.1237 2.0549 3.6393 2.1533 5.0162 0.9152 1.6044-1.4435 3.6749-9.1478 7.8395-28.983 3.2432-15.446 6.4028-24.094 12.756-35.016 7.7869-13.387 17.66-22.233 26.734-24.068 1.7162-0.3476 5.7716-1.8032 9.0014-3.2322 29.308-12.969 59.883-1.7289 86.892 31.739 12.353 15.306 19.455 31.394 21.73 48.657 3.0194 22.908-7.8034 73.143-24.396 111.35-5.851 13.474-14.054 27.775-29.688 51.498-16.735 25.395-25.844 41.642-39.674 71.087-5.7387 12.217-15.808 32.723-22.405 45.617-6.5768 12.852-14.503 28.813-17.55 35.346-7.8717 16.881-14.679 29.22-20.669 37.431-11.17 15.313-22.519 21.054-33.689 17.021z" fill="#b7426c"/><path d="m1359.1 4651.4c-6.5404-2.4583-12.373-6.8808-18.954-14.414-9.2756-10.617-11.728-17.079-15.453-40.73-1.9409-12.324-3.9465-17.726-8.1808-21.997-4.7572-4.7987-8.9566-6.5883-21.04-8.9727-23.945-4.7241-29.529-8.965-45.83-35.541-9.2793-15.129-15.392-22.889-20.874-26.339-2.2882-1.4397-8.6456-4.1403-14.127-5.9985-5.4809-1.8584-11.34-4.0461-13.01-4.8594-5.3299-2.5945-13.195-9.7652-18.787-17.146-12.167-16.06-15.624-19.874-20.997-22.949-5.2311-2.9936-5.3891-3.0454-22.793-4.0885-19.195-1.1506-19.143-1.1391-37.545-8.975-4.9676-2.1153-15.132-5.5745-22.766-7.7341-21.52-6.0885-34.061-12.089-56.275-26.83-15.139-10.046-16.882-12.122-16.291-20.184 0.4192-5.7207 1.912-9.4142 4.1943-10.404 2.1117-0.9152 10.891-2.0364 20.052-2.5426 9.6081-0.5309 15.888 0.9444 26.979 6.3655 4.313 2.108 8.4516 3.8482 9.206 3.8615 0.7547 0.027 6.2276-2.7759 12.13-6.1825 14.349-8.2813 18.543-9.7684 28.476-10.07 10.198-0.3088 17.668 1.7126 35.906 9.8296 18.661 8.3057 23.546 9.8703 34.27 10.804 10.939 0.9533 16.139 0.2717 31.968-4.1798 23.865-6.7111 29.57-5.3148 54.833 12.78 6.7377 4.8259 13.132 8.6055 17.466 10.336 9.9141 3.9571 18.941 3.7125 33.654-0.9177 15.624-4.9177 23.681-6.1901 30.213-4.7253 10.719 2.4047 14.772 6.1338 30.121 26.837 12.695 17.124 16.237 23.039 18.862 32.165 2.6682 9.2776 2.61 8.9656 4.5717 27.64 0.9426 8.9729 2.6074 21.983 3.7414 29.229 3.372 21.544 3.4904 50.377 0.077 84.312-2.5026 24.873-8.4668 40.609-18.14 47.858-7.3895 5.5369-17.13 6.9682-25.656 3.7638h-4e-4z" fill="#da9bba"/><path d="m406.44 4664.3c-13.552-4.9665-22.107-23.424-25.269-54.682-1.5449-15.269 0.0778-26.81 6.5386-44.774 5.9702-16.595 6.8476-26.212 3.4347-40.775-2.9079-12.411-2.0495-23.652 2.434-30.479 3.8273-5.8259 11.349-11.446 19.634-14.724 13.441-5.3174 27.305-6.7273 55.53-5.7985 26.437 0.8702 35.58-0.144 48.202-5.2253 7.4279-2.99 10.824-5.259 26.501-18.078 24.127-19.729 29.257-21.923 58.608-24.854 7.2004-0.7196 15.46-2.0267 18.441-2.9115 7.2249-2.1448 14.861-7.2473 21.663-14.465 17.098-18.143 23.377-22.884 35.211-26.351 17.746-5.1981 39.677-0.2841 50.587 11.263 7.3398 7.7683 7.7876 14.882 1.6589 24.821-2.8448 4.6139-7.2735 8.8851-36.634 33.379-7.0602 5.8903-16.095 14.335-19.922 18.645-3.8682 4.3559-10.461 10.825-14.734 14.454-6.5504 5.5629-10.138 7.6872-23.77 13.91-8.8201 4.0264-18.413 9.0051-21.171 11.018-6.0061 4.3845-13.508 13.017-25.013 28.681-10.578 14.402-15.135 19.364-23.808 25.998-9.152 7.0008-18.883 10.844-40.304 15.732-21.498 4.9044-31.633 8.8134-40.531 15.833-8.994 7.0952-15.334 14.689-24.272 29.181-16.302 26.432-20.832 32.201-29.454 36.98-9.1042 5.0452-16.008 5.9886-23.561 3.2206z" fill="#da9bba"/><path d="m1379.5 5012.4c-8.9336-1.9811-19.383-9.1049-26.121-17.825-8.8379-11.438-11.53-18.818-16.72-46.628-4.2603-22.827-6.4395-29.946-14.622-47.958-7.7795-17.126-11.557-29.241-13.711-43.474-2.5794-17.046-5.2509-28.704-8.0095-34.722-1.361-2.9686-5.6247-9.4144-9.4226-14.269-12.941-16.538-15.697-23.193-20.061-48.021-3.2392-18.427-7.5173-26.377-20.739-38.718-11.99-11.191-14.53-14.822-21.685-30.982-3.8141-8.6147-7.8484-16.269-10.104-19.132-4.9261-6.253-12.929-12.048-24.825-17.972-27.659-13.775-34.292-21.768-40.514-49.035-5.2374-22.951-9.7837-30.278-27.209-43.546-10.627-8.0917-13.513-11.089-25.101-26.164-3.62-4.7093-7.7977-8.669-13.621-12.897-6.4118-4.6554-11.312-9.4406-20.669-20.18-6.7582-7.7572-15.799-17.079-20.156-20.78-4.3021-3.6547-10.921-9.5023-14.534-12.841-3.6885-3.4095-10.168-9.091-14.576-12.777-10.252-8.5723-17.409-16.166-18.672-19.896-1.5726-4.6447-0.8909-8.9187 1.9195-12.078 4.9335-5.546 12.225-5.3942 21.915 0.4744 2.8233 1.7093 8.0369 4.0642 11.549 5.2188 12.852 4.2242 16.461 6.8829 28.782 21.105 13.411 15.48 15.799 17.027 35.003 23.1 7.0082 2.2164 15.144 5.3326 18.139 6.9354 7.9544 4.2564 15.17 13.286 23.352 29.105 4.3793 8.467 8.5797 15.105 12.352 19.544 5.9965 7.0547 6.0333 7.0754 31.938 21.019 13.609 7.3256 18.516 12.871 26.961 30.265 8.5456 17.601 11.28 19.38 32 21.265 20.345 1.8502 23.405 3.6175 46.576 25.035 13.809 12.764 30.66 30.588 41.739 44.142 3.6287 4.4398 10.298 10.894 16.129 15.588 14.583 11.742 18.449 16.736 26.283 34.08 10.719 23.73 21.709 52.672 24.988 66.568 5.891 24.962 7.3353 57.7 3.4098 83.891-1.3252 8.9093-1.2952 30.097 0.095 41.99 1.6424 14.061 1.4546 33.966-0.5576 55.3-1.7159 18.187-1.721 19.034-0.087 24.66 0.931 3.2033 1.8647 8.0491 2.0721 10.762 0.5145 6.7338-1.7447 8.7953-10.746 9.9262-7.5365 0.9465-8.1103 0.949-12.74-0.079l-8e-4 3e-4" fill="#da9bba"/><path d="m390.66 5013c-5.3643-1.8881-8.2354-4.0846-11.784-9.0108-7.6898-10.67-9.4547-28.93-7.181-82.154 1.1398-26.682 0.83832-30.172-5.6166-51.124-2.6383-8.5929-3.5811-13.554-3.982-21.281-0.63234-12.046 0.72526-18.089 7.663-32.334 7.1211-14.622 8.1803-19.037 7.349-32.96-0.38223-6.4022-0.67623-15.72-0.64608-20.654 0.0508-8.3874 0.28632-9.3987 3.6117-14.969 7.0722-11.846 19.481-18.607 46.797-25.584 33.827-8.6411 42.698-15.623 46.553-36.474 0.77686-4.2021 2.2266-12.163 3.0922-16.98 2.9609-16.474 7.8146-24.86 20.215-34.978 7.1236-5.8127 10.421-7.7287 20.102-11.725 6.5885-2.7195 18.826-6.6612 28.389-9.1574 35.053-9.1509 51.296-18.741 62.361-36.22 1.9236-3.0393 6.605-12.454 10.419-20.969 9.0696-20.251 14.457-28.408 24.366-36.86 9.0718-7.7385 16.013-11.226 32.964-16.685 6.6975-2.1569 13.957-4.9518 16.208-6.2275 5.8059-3.2913 10.173-9.0973 16.894-22.493 11.144-22.212 19.402-32.915 32.076-41.574 10.353-7.0733 16.307-9.3336 25.164-9.5211 6.1109-0.1292 8.0326 0.1932 10.158 1.696 6.9815 4.934 8.1725 12.249 3.3376 20.184-3.0305 4.9733-6.884 8.7325-20.335 19.607-3.1826 2.6197-9.6515 7.7898-9.6515 7.7898-0.27647 4.1948-0.91142 12.513-0.91142 12.513-1.1215 15.34-2.6329 21.619-6.9868 29.212-4.1803 7.291-10.22 12.715-26.188 23.247-22.94 15.131-33.549 26.569-38.167 41.714-1.079 3.5369-2.8327 14.431-3.9121 24.271-1.0778 9.8236-2.8516 20.757-3.9395 24.316-4.2221 13.813-12.289 22.777-27.665 30.556-0.10837 0.056-14.921 7.5316-15.029 7.5865-16.682 8.4023-27.906 18.58-38.002 34.603-12.617 20.024-15.968 38.017-12.501 66.782 1.2765 10.587-0.0107 19.466-3.6541 25.399-3.1173 5.0682-13.03 13.482-27.315 23.185-13.014 8.8392-22.229 17.746-28.029 27.102-7.1318 11.506-9.1869 18.345-11.867 40.148-3.4057 27.704-5.6608 32.479-23.025 48.758-10 9.376-12.816 13.295-21.169 29.962-9.2566 18.469-13.794 25.175-22.866 33.249-16.405 14.6-35.884 22.072-47.293 18.055v1e-4z" fill="#da9bba"/><path d="m519.05 5017.4c-10.298-2.3717-20.837-10.34-25.353-19.19-5.106-10.006-5.2248-19.508-0.29139-28.734 3.971-7.4258 8.4403-11.502 24.324-21.944 27.098-17.814 28.787-21.572 28.832-61.994 0.0183-17.191 1.3924-23.442 7.0285-32.359 4.1967-6.6388 7.8386-10.352 22.801-23.243 13.679-11.785 19.582-18.27 24.473-26.875 6.3905-11.243 7.5326-17.753 9.6549-53.647 1.5174-25.667 4.6407-35.139 15.298-46.708 6.6556-7.2252 13.293-11.371 30.715-19.377 12.655-5.8157 17.224-8.4647 22.37-12.869 11.315-9.6845 17.532-22.656 21.037-43.732 6.2887-37.821 7.8755-40.75 33.806-67.065 10.484-10.64 17.009-18.998 29.305-37.626 10.856-16.446 11.713-18.344 14.594-31.431 2.8914-13.132 5.0092-18.707 8.879-23.374 10.067-12.141 28.963-9.4099 34.371 4.815 2.0874 5.4905 1.773 15.916-0.6722 22.297-0.77753 2.0301-2.077 8.0386-2.8876 13.354-1.9193 12.59-3.9108 16.08-16.194 27.917-11.363 10.95-14.57 15.011-17.563 22.461-3.0127 7.4991-3.5781 17.63-2.0701 37.182 2.0664 26.792-0.27712 38.967-10.061 51.745-2.0728 2.7069-9.4896 10.235-16.588 16.799-13.887 12.841-18.178 18.207-22.395 28.344-2.3349 5.6138-3.0256 9.5137-5.2702 29.935-3.4137 31.056-5.671 37.115-20.978 55.133-17.716 20.855-20.579 27.867-29.169 74.942-6.3068 34.563-6.937 36.472-20.701 58.998-12.072 19.757-12.504 21.078-13.818 45.778-0.87287 16.419-1.3984 21.263-2.8963 25.002-4.0945 10.219-15.262 18.574-33.548 25.102-13.212 4.7167-22.44 6.7373-37.087 8.1285-6.8773 0.6527-16.814 1.7005-22.17 2.3366-10.642 1.2643-22.027 1.2221-27.776-0.1025z" fill="#da9bba"/><path d="m715.48 5023.2c-14.527-2.0466-21.798-3.8851-28.639-7.2353-12.95-6.343-18.416-19.605-13.352-32.818 2.5426-6.6338 8.6719-14.015 20.618-24.861 13.316-12.09 15.617-15.741 16.196-25.548 0.23437-4.0083-0.18446-10.806-0.93521-15.08-0.88033-5.0128-1.1179-11.033-0.66508-16.923 1.1361-14.793 5.5486-22.221 23.38-39.979 11.66-11.612 13.854-15.363 15.045-25.388 0.81361-6.8428 0.5505-9.6605-2.0675-22.554-5.1948-25.575-4.6504-34.129 2.8376-47 3.2047-5.508 6.485-8.9798 19.088-20.51 16.435-15.037 21.478-21.79 24.549-32.354 2.5095-8.632 2.2795-21.921-0.6345-37.528-2.2487-12.043-2.4356-14.777-1.5548-22.614 1.4634-13.022 3.8343-16.69 19.811-31.543 17.974-16.71 17.612-15.997 19.491-46.484 1.6162-26.213 2.9652-32.739 8.7112-42.538 10.678-18.211 26.789-12.679 29.701 9.9884 0.22823 1.7758 1.3221 8.4065 2.434 14.749 1.7613 10.044 1.8831 12.722 0.94039 20.778-1.1242 9.6098-1.3022 10.236-14.418 40.305-3.6402 8.3455-4.4066 11.126-5.3379 19.459-1.1882 10.633-0.67491 15.397 4.1098 37.414 6.2464 28.742 3.654 41.401-14.517 67.73-6.9568 10.081-13.545 21.914-15.94 28.706-2.6394 7.4868-4.9879 30.235-4.307 41.833 0.29192 4.9733 1.5157 16.086 2.7304 24.768 3.983 28.458 2.9058 38.284-7.2228 63.547-9.5787 23.892-10.645 29.571-9.8125 53.127 0.63239 17.889-2.1213 28.216-11.963 44.734-5.8555 9.8266-13.726 17.342-21.885 20.895-12.316 5.3639-31.799 6.3904-56.393 2.926z" fill="#da9bba"/><path d="m892.52 5029.9c-4.8094-1.168-10.173-3.9759-13.886-7.2722-9.7218-8.6318-16.396-28.493-16.138-48.264 0.16294-12.436 1.7317-20.331 7.5988-38.61 7.2923-22.719 7.2914-27.162 0.15155-49.008-9.7036-29.69-7.9123-43.502 9.1735-75.27 11.25-20.916 12.279-23.786 12.842-34.117 0.40351-7.421 0-10.918-2.5706-22.244-5.9034-26.042-4.9637-37.31 5.2821-66.781 5.8013-16.687 5.9837-17.524 6.8455-29.689 0.87774-12.412 0.85775-12.64-2.5407-26.414-1.8852-7.6472-3.738-16.487-4.1272-19.675-1.0218-8.3704 1.3485-28.4 4.45-37.726 1.3547-4.0743 3.3045-11.59 4.3335-16.7 2.2895-11.366 4.5745-15.906 8.8662-17.67 5.4908-2.2576 12.09 0.4983 14.512 6.0429 1.9708 4.5115 4.3184 24.636 4.6682 39.906 0.1929 8.4293-0.24797 15.492-1.5932 25.503-1.9649 14.609-1.9822 24.399-0.0581 36.218 0.61324 3.7644 0.82297 14.325 0.53017 26.247-0.13915 6.6763-0.4831 19.948-0.4831 19.948 1.2879 4.8603 3.7954 14.5 3.7954 14.5 6.4542 24.625 6.2965 31.713-1.5562 56.463-5.9953 18.895-6.6506 24.017-5.1344 41.234 1.6184 18.374 0.84003 29.504-3.0219 42.546-6.8612 23.169-6.9553 26.656-0.88682 45.616 6.0194 18.808 5.9764 25.344-0.49269 46.052-5.084 16.273-5.1274 20.524-0.29227 38.077 3.6595 13.284 3.9115 15.016 3.4168 23.433-0.59846 10.176-2.3785 14.619-8.2779 20.64-5.9102 6.0321-16.923 9.0768-25.406 7.0157z" fill="#da9bba"/><path d="m1029.4 5030.6c-16.154-3.3585-33.84-12.788-43.144-23.041-10.574-11.652-12.168-24.134-6.1216-46.869 4.2415-15.949 4.0528-18.507-2.1751-32.565-2.6751-6.0385-5.4059-13.253-6.0681-16.031-2.7782-11.653-1.0053-30.133 4.7-49.667 7.0323-24.078 6.6754-30.208-2.6791-50.974-8.3552-18.548-9.754-24.449-8.8855-37.359 0.56363-8.3956 1.3266-12.155 4.3025-21.318 6.8951-21.232 7.9828-25.76 8.607-35.234 0.77193-11.712-0.47359-15.84-9.1127-30.208-12.579-20.921-13.806-28.604-9.4371-59.5 2.071-14.642 1.6039-21.337-2.5978-37.783-4.3061-16.854-5.3104-26.439-4.328-41.111 0.48785-7.3459 0.44314-14.748-0.12731-18.898-1.1756-8.5518 0.0767-17.017 3.469-23.574 6.2264-12.034 18.43-12.576 24.641-1.1861 3.4713 6.3651 15.347 54.092 17.715 71.201 2.5669 18.551 4.0233 24.023 8.5453 32.421 13.746 25.53 13.735 25.496 12.618 53.1-0.9983 24.659-0.438 28.86 5.9743 45.296 6.6156 16.958 8.3887 27.818 8.4823 51.931 0.074 19.317 2.1809 26.874 12.492 44.745 11.493 19.919 11.894 21.982 10.323 55.269-1.195 25.329-1.1841 26.36 0.6104 31.513 1.0207 2.93 4.1883 8.5708 7.0436 12.542 0.1081 0.1513 9.4983 13.185 9.6062 13.335 2.4281 3.3633 5.3856 8.7891 6.5664 12.046 2.1015 5.7956 2.137 6.3782 1.2673 25.535-0.2727 6.5629-0.8981 19.57-0.8981 19.57 1.3411 3.6464 3.9487 10.845 3.9487 10.845 3.5241 9.6666 3.9199 11.564 3.6339 17.625-0.2532 5.6339-0.7773 7.5957-3.0041 11.495-4.3204 7.566-12.903 13.418-24.054 16.377-6.9215 1.8364-24.1 2.0982-31.913 0.4732h0.011" fill="#da9bba"/><path d="m1276.7 5029.8c-7.0667-2.2254-10.289-3.9605-18.962-10.28-11.118-8.101-16.25-10.178-24.816-9.9623-3.8097 0.094-10.992 1.0948-15.973 2.2205-13.486 3.0486-23.173 3.655-31.401 1.9546-10.158-2.0991-18.248-6.4433-23.827-12.81-8.7229-9.9535-12.303-21.38-13.683-43.603-1.9996-32.215-4.1948-38.055-21.302-57.066-16.98-18.87-19.882-26.292-22.053-56.099-1.7387-23.874-3.3416-30.519-12.751-53.279-7.9412-19.209-9.4205-26.262-9.7119-46.051-0.2521-17.106-1.0767-21.572-6.5948-35.793-2.3253-5.9927-5.837-16.235-7.8425-22.877-1.9947-6.6061-4.6608-14.442-5.914-17.37-1.2645-2.9534-4.6562-12.298-7.5573-20.842-2.8759-8.47-8.6509-23.487-12.735-33.122-4.1321-9.7468-10.385-26.736-13.982-38-8.0923-25.339-12.53-35.64-20.996-48.394-3.8631-5.8191-9.3696-14.095-13.221-19.868-10.872-16.296-17.057-33.898-14.893-42.476 1.7671-7.0034 8.5864-11.56 15.397-10.318 4.6862 0.8544 11.552 5.3755 14.742 9.6947 1.4857 2.0113 4.4605 7.5099 6.6156 12.224 3.7636 8.2345 4.1703 8.731 10.222 12.666 13.852 9.007 17.048 13.796 28.144 41.409 7.4747 18.599 8.0669 19.677 14.148 26.518 5.7608 6.4802 7.6523 7.8575 20.338 14.932 16.611 9.2639 19.446 11.369 25.264 18.573 6.1452 7.6112 8.8976 13.42 15.451 32.356 6.7159 19.405 9.9693 26.401 14.677 31.814 5.2697 6.06 10.019 8.6611 26.994 14.808 18.48 6.6922 22.575 8.9749 29.198 16.237 8.2541 9.0495 11.141 17.976 15.107 46.204 4.1629 29.631 5.7171 33.309 23.789 54.835 10.186 12.133 13.498 19.724 17.114 39.26 4.4974 24.297 7.0521 29.966 20.465 45.119 13.021 14.711 15.514 20.791 17.394 42.977 1.3975 16.499 4.3256 26.982 10.225 36.561 5.7164 9.2824 8.7822 16.189 10.87 24.611 4.5988 18.552 2.1943 38.355-5.7827 46.64-1.3658 1.4213-4.5549 3.6568-7.0787 4.9666-6.1561 3.1946-17.726 3.9445-25.076 1.63" fill="#da9bba"/></g></g></svg>